<?xml version="1.0" encoding="UTF-8"?> <svg xmlns="http://www.w3.org/2000/svg" width="31" height="31" viewBox="0 0 31 31" fill="none"><g clip-path="url(#clip0_215_205)"><path fill-rule="evenodd" clip-rule="evenodd" d="M2.17913 2.17913C0 4.35825 0 7.86548 0 14.88V16.12C0 23.1345 0 26.6417 2.17913 28.8209C4.35825 31 7.86548 31 14.88 31H16.12C23.1345 31 26.6417 31 28.8209 28.8209C31 26.6417 31 23.1345 31 16.12V14.88C31 7.86548 31 4.35825 28.8209 2.17913C26.6417 0 23.1345 0 16.12 0H14.88C7.86548 0 4.35825 0 2.17913 2.17913ZM5.23133 9.42923C5.39924 17.4892 9.42923 22.333 16.4946 22.333H16.8951V17.7217C19.4914 17.9801 21.4546 19.8788 22.2425 22.333H25.9109C24.9034 18.6646 22.2554 16.6367 20.602 15.8617C22.2554 14.9059 24.5804 12.5809 25.1358 9.42923H21.8032C21.0799 11.9867 18.936 14.3117 16.8951 14.5313V9.42923H13.5625V18.3676C11.4958 17.8509 8.88673 15.3451 8.77048 9.42923H5.23133Z" fill="white"></path></g><defs><clipPath id="clip0_215_205"><rect width="31" height="31" fill="white"></rect></clipPath></defs></svg> 