<?xml version="1.0" encoding="UTF-8"?> <svg xmlns="http://www.w3.org/2000/svg" width="31" height="31" viewBox="0 0 31 31" fill="none"><path d="M30.6912 9.29995C30.6912 9.29995 30.3885 7.16265 29.4561 6.22417C28.2754 4.98901 26.9555 4.98296 26.35 4.9103C22.0148 4.59546 15.5061 4.59546 15.5061 4.59546H15.4939C15.4939 4.59546 8.98516 4.59546 4.65 4.9103C4.04453 4.98296 2.72461 4.98901 1.54395 6.22417C0.611523 7.16265 0.314844 9.29995 0.314844 9.29995C0.314844 9.29995 0 11.8126 0 14.3193V16.6685C0 19.1751 0.308789 21.6878 0.308789 21.6878C0.308789 21.6878 0.611523 23.8251 1.53789 24.7636C2.71855 25.9988 4.26855 25.9564 4.95879 26.0896C7.44121 26.3257 15.5 26.3984 15.5 26.3984C15.5 26.3984 22.0148 26.3863 26.35 26.0775C26.9555 26.0048 28.2754 25.9988 29.4561 24.7636C30.3885 23.8251 30.6912 21.6878 30.6912 21.6878C30.6912 21.6878 31 19.1812 31 16.6685V14.3193C31 11.8126 30.6912 9.29995 30.6912 9.29995ZM12.2971 19.5203V10.8076L20.6707 15.1791L12.2971 19.5203Z" fill="white"></path></svg> 