<?xml version="1.0" encoding="UTF-8"?> <svg xmlns="http://www.w3.org/2000/svg" width="16" height="17" viewBox="0 0 16 17" fill="none"><path d="M6.33785 3.58206C6.96834 1.9509 7.28358 1.13533 7.79574 1.02229C7.93041 0.99257 8.06959 0.99257 8.20426 1.02229C8.71642 1.13533 9.03166 1.9509 9.66215 3.58206C10.0207 4.50967 10.2 4.97347 10.5354 5.28893C10.6295 5.37741 10.7316 5.45622 10.8404 5.52424C11.2281 5.76674 11.7121 5.81172 12.6801 5.90169C14.3187 6.05399 15.138 6.13013 15.3882 6.61493C15.44 6.71534 15.4753 6.82405 15.4925 6.93654C15.5754 7.47972 14.9731 8.0484 13.7684 9.18577L13.4339 9.50161C12.8707 10.0333 12.5891 10.2992 12.4263 10.631C12.3285 10.8301 12.263 11.0444 12.2323 11.2655C12.1812 11.6341 12.2636 12.0198 12.4285 12.7912L12.4875 13.0668C12.7832 14.4501 12.9311 15.1418 12.7465 15.4818C12.5807 15.7872 12.2753 15.9827 11.9379 15.9994C11.5623 16.0181 11.033 15.5705 9.97448 14.6754C9.27709 14.0857 8.9284 13.7908 8.54131 13.6756C8.18756 13.5703 7.81244 13.5703 7.45869 13.6756C7.0716 13.7908 6.7229 14.0857 6.02552 14.6754C4.967 15.5705 4.43775 16.0181 4.06213 15.9994C3.72474 15.9827 3.41931 15.7872 3.25349 15.4818C3.06889 15.1418 3.21677 14.4501 3.51253 13.0668L3.57145 12.7912C3.73637 12.0198 3.81883 11.6341 3.76766 11.2655C3.73696 11.0444 3.67145 10.8301 3.57375 10.631C3.41087 10.2992 3.12927 10.0333 2.56608 9.50161L2.23156 9.18577C1.02692 8.0484 0.4246 7.47972 0.507549 6.93654C0.524728 6.82405 0.55996 6.71534 0.611778 6.61493C0.861977 6.13013 1.68129 6.05399 3.31993 5.90169C4.28792 5.81172 4.77191 5.76674 5.15962 5.52424C5.26837 5.45622 5.37051 5.37741 5.46459 5.28893C5.80004 4.97347 5.97931 4.50967 6.33785 3.58206Z" fill="#273B4A" stroke="#273B4A"></path></svg> 