<?xml version="1.0" encoding="UTF-8"?> <svg xmlns="http://www.w3.org/2000/svg" width="32" height="32" viewBox="0 0 32 32" fill="none"><path fill-rule="evenodd" clip-rule="evenodd" d="M20.9997 20.8488C19.4403 20.2929 17.7359 20 15.9996 20C13.358 20 10.7902 20.6779 8.69451 21.9287C6.97426 22.9554 5.65099 24.3209 4.85392 25.8748C4.57903 26.4107 4.93006 27.0264 5.51967 27.1493L7.83878 27.6326C12.1736 28.536 16.621 28.7118 20.9997 28.1602V27H18.6663C17.0095 27 15.6663 25.6569 15.6663 24C15.6663 22.3431 17.0095 21 18.6663 21L20.9997 21V20.8488Z" fill="#222222"></path><path d="M24 18.6667L24 29.3333" stroke="#222222" stroke-width="2.5" stroke-linecap="round"></path><path d="M29.333 24L18.6663 24" stroke="#222222" stroke-width="2.5" stroke-linecap="round"></path><ellipse cx="15.9997" cy="10.6667" rx="6.66667" ry="6.66667" fill="#222222"></ellipse></svg> 