<?xml version="1.0" encoding="UTF-8"?> <svg xmlns="http://www.w3.org/2000/svg" width="33" height="25" viewBox="0 0 33 25" fill="none"><g id="Shopping_Basket"><path id="Vector" d="M32.8636 10.0264C32.7343 9.85313 32.5295 9.75 32.3122 9.75H24.461L19.159 0.4715C18.9692 0.142875 18.5498 0.0287499 18.2212 0.214375C17.8912 0.404125 17.7771 0.8235 17.9655 1.1535L22.877 9.75H10.1225L15.0353 1.1535C15.2237 0.824875 15.1096 0.404125 14.7796 0.214375C14.4482 0.0273749 14.0288 0.1415 13.8418 0.4715L8.53845 9.75H0.687203C0.469953 9.75 0.265078 9.85313 0.135828 10.0264C0.00657789 10.201 -0.0332971 10.4265 0.0285779 10.6341L3.56508 22.4234C4.00508 23.8905 5.32783 24.875 6.8582 24.875H26.1398C27.6702 24.875 28.993 23.8905 29.433 22.4247L32.9695 10.6355C33.0327 10.4265 32.9942 10.201 32.8636 10.0264Z" fill="black"></path></g></svg> 